<svg width="223" height="71" viewBox="0 0 223 71" fill="none" xmlns="http://www.w3.org/2000/svg">
<path opacity="0.47" d="M34.3253 22H142.193C152.686 22 161.193 30.5066 161.193 41V51C161.193 61.4934 169.699 70 180.193 70H223" stroke="white" stroke-width="2" stroke-miterlimit="16" stroke-linecap="round" stroke-linejoin="round" stroke-dasharray="2 5"/>
<path opacity="0.07" d="M43.3373 21.5C43.3373 30.8662 35.0016 39 24.0241 39C13.0466 39 4.71083 30.8662 4.71083 21.5C4.71083 12.1338 13.0466 4 24.0241 4C35.0016 4 43.3373 12.1338 43.3373 21.5Z" stroke="white" stroke-width="8"/>
<path opacity="0.47" d="M31.1566 21.5C31.1566 25.0152 28.0411 28 24.0241 28C20.0071 28 16.8916 25.0152 16.8916 21.5C16.8916 17.9848 20.0071 15 24.0241 15C28.0411 15 31.1566 17.9848 31.1566 21.5Z" stroke="white" stroke-width="2"/>
</svg>
